<svg width="16" height="9" viewBox="0 0 16 9" fill="none" xmlns="http://www.w3.org/2000/svg">
<path d="M14.7917 6.49038C15.0679 6.49038 15.2917 6.71424 15.2917 6.99038C15.2917 7.26652 15.0679 7.49038 14.7917 7.49038L14.7917 6.49038ZM0.541752 7.49038C0.26561 7.49038 0.0417524 7.26652 0.0417524 6.99038C0.0417524 6.71424 0.26561 6.49038 0.541752 6.49038L0.541752 7.49038ZM10.5402 3.52712L10.0446 3.46106L10.5402 3.52712ZM11.7171 3.46086L12.2021 3.33959L11.7171 3.46086ZM7.19611 6.1308L7.69505 6.09833L7.19611 6.1308ZM6.98304 2.85688L7.48198 2.8244L6.98304 2.85688ZM6.69716 6.16327L6.48409 2.88935L7.48198 2.8244L7.69505 6.09833L6.69716 6.16327ZM9.68418 6.1655L10.0446 3.46106L11.0359 3.59317L10.6754 6.29761L9.68418 6.1655ZM12.2021 3.33959L12.7058 5.35418L11.7356 5.59672L11.232 3.58213L12.2021 3.33959ZM14.161 6.49038L14.7917 6.49038L14.7917 7.49038L14.161 7.49038L14.161 6.49038ZM4.50008 2.78825L4.0594 5.40548L3.07328 5.23944L3.51396 2.62221L4.50008 2.78825ZM1.59411 7.49038L0.541752 7.49038L0.541752 6.49038L1.59411 6.49038L1.59411 7.49038ZM12.7058 5.35418C12.8727 6.02193 13.4727 6.49038 14.161 6.49038L14.161 7.49038C13.0138 7.49038 12.0139 6.70964 11.7356 5.59672L12.7058 5.35418ZM10.0446 3.46106C10.2049 2.25868 11.9079 2.16276 12.2021 3.33959L11.232 3.58213C11.2214 3.53996 11.2055 3.52768 11.1976 3.5223C11.1844 3.5134 11.1607 3.50478 11.1294 3.50654C11.0981 3.5083 11.0754 3.51954 11.0633 3.52986C11.056 3.5361 11.0416 3.5501 11.0359 3.59317L10.0446 3.46106ZM4.0594 5.40548C3.85675 6.60906 2.81463 7.49038 1.59411 7.49038L1.59411 6.49038C2.32642 6.49038 2.95169 5.96159 3.07328 5.23944L4.0594 5.40548ZM7.69505 6.09833C7.77349 7.30356 9.52462 7.36267 9.68418 6.1655L10.6754 6.29761C10.3563 8.69199 6.85404 8.57371 6.69716 6.16327L7.69505 6.09833ZM6.48409 2.88935C6.40699 1.70473 4.69719 1.61763 4.50008 2.78825L3.51396 2.62221C3.90818 0.280931 7.32779 0.455214 7.48198 2.8244L6.48409 2.88935Z" fill="white"/>
</svg>
