<svg width="17" height="20" viewBox="0 0 17 20" fill="none" xmlns="http://www.w3.org/2000/svg">
<path d="M12.1316 0C12.1781 0 12.2247 0 12.2739 0C12.388 1.41044 11.8497 2.46432 11.1954 3.22751C10.5534 3.98542 9.67431 4.7205 8.25245 4.60897C8.1576 3.21872 8.69683 2.24301 9.35024 1.48158C9.95622 0.771967 11.0672 0.140517 12.1316 0Z" fill="black"/>
<path d="M16.4358 14.6805C16.4358 14.6945 16.4358 14.7068 16.4358 14.72C16.0362 15.9302 15.4662 16.9674 14.7706 17.9299C14.1357 18.8038 13.3576 19.9797 11.9682 19.9797C10.7676 19.9797 9.97021 19.2078 8.73981 19.1867C7.43827 19.1656 6.72251 19.8322 5.5325 19.9999C5.39638 19.9999 5.26025 19.9999 5.12676 19.9999C4.25292 19.8735 3.5477 19.1814 3.03393 18.5579C1.51898 16.7153 0.348295 14.3353 0.130493 11.2896C0.130493 10.991 0.130493 10.6933 0.130493 10.3947C0.222708 8.21493 1.28186 6.44266 2.68966 5.58374C3.43265 5.12706 4.45403 4.73801 5.59134 4.9119C6.07876 4.98742 6.57672 5.15429 7.0132 5.3194C7.42685 5.47836 7.94413 5.76027 8.43419 5.74534C8.76616 5.73568 9.09637 5.56267 9.43098 5.44059C10.4111 5.08667 11.3719 4.68092 12.6383 4.8715C14.1603 5.10159 15.2405 5.77783 15.9079 6.82118C14.6205 7.64057 13.6026 8.87536 13.7765 10.984C13.931 12.8994 15.0446 14.0201 16.4358 14.6805Z" fill="black"/>
</svg>
