<svg width="14" height="16" viewBox="0 0 14 16" fill="none" xmlns="http://www.w3.org/2000/svg">
<path d="M5.19227 12.15L5.62529 12.4L5.87529 11.967L5.44227 11.717L5.19227 12.15ZM1.46327 9.99711L1.71327 9.56409L1.28026 9.31409L1.03026 9.74711L1.46327 9.99711ZM0.998211 9.58273L0.748211 10.0157H0.748211L0.998211 9.58273ZM9.71935 14.6179L9.96935 14.1849L9.71935 14.6179ZM11.0121 14.0924L11.4677 14.2983L11.4677 14.2983L11.0121 14.0924ZM0.812458 8.19281L0.408153 7.89863H0.408153L0.812458 8.19281ZM9.29788 2.08366L9.73089 2.33366V2.33366L9.29788 2.08366ZM12.0639 3.68062L12.4969 3.93062V3.93062L12.0639 3.68062ZM11.9065 3.95318L11.4735 3.70318L11.3091 3.98801L11.5055 4.25181L11.9065 3.95318ZM12.5297 7.87091L13.0167 7.98444V7.98444L12.5297 7.87091ZM5.39965 3.80982L5.7448 4.17159L5.39965 3.80982ZM9.14052 2.35621L9.08241 2.85282L9.40908 2.89105L9.57353 2.60621L9.14052 2.35621ZM11.0871 13.6734H10.5871L10.5871 13.6734L11.0871 13.6734ZM11.0871 12.4156H11.5871H11.0871ZM11.6587 9.85974L11.2064 9.64675V9.64675L11.6587 9.85974ZM12.2949 8.5087L11.8425 8.29571V8.29571L12.2949 8.5087ZM1.12285 7.92849L1.37815 8.3584L1.37815 8.3584L1.12285 7.92849ZM2.24573 7.26166L1.99042 6.83175H1.99042L2.24573 7.26166ZM4.05287 5.60641L3.64697 5.31444H3.64697L4.05287 5.60641ZM5.02544 4.25433L5.43133 4.5463V4.5463L5.02544 4.25433ZM4.75926 11.9C4.30281 12.6906 3.29189 12.9615 2.5013 12.5051L2.0013 13.3711C3.27018 14.1037 4.8927 13.6689 5.62529 12.4L4.75926 11.9ZM2.5013 12.5051C1.71071 12.0486 1.43984 11.0377 1.89628 10.2471L1.03026 9.74711C0.297668 11.016 0.732419 12.6385 2.0013 13.3711L2.5013 12.5051ZM1.21327 10.4301L4.94227 12.5831L5.44227 11.717L1.71327 9.56409L1.21327 10.4301ZM0.748211 10.0157L9.46935 15.0509L9.96935 14.1849L1.24821 9.14971L0.748211 10.0157ZM9.46935 15.0509C9.8707 15.2826 10.303 15.2991 10.6811 15.1275C11.0419 14.9638 11.3083 14.651 11.4677 14.2983L10.5565 13.8865C10.4729 14.0715 10.3594 14.1753 10.2679 14.2169C10.1937 14.2505 10.1011 14.2609 9.96935 14.1849L9.46935 15.0509ZM0.408153 7.89863C0.179103 8.21344 0.0385048 8.60201 0.0753915 8.99828C0.114072 9.41383 0.344542 9.78268 0.748211 10.0157L1.24821 9.14971C1.11595 9.07335 1.07871 8.98752 1.07109 8.9056C1.06167 8.80441 1.09616 8.65273 1.21676 8.48698L0.408153 7.89863ZM9.73089 2.33366C10.0337 1.80923 10.7045 1.62946 11.2292 1.93243L11.7292 1.0664C10.7263 0.487389 9.44388 0.830769 8.86487 1.83366L9.73089 2.33366ZM11.2292 1.93243C11.754 2.23539 11.9337 2.90619 11.6309 3.43062L12.4969 3.93062C13.0759 2.92773 12.7321 1.64541 11.7292 1.0664L11.2292 1.93243ZM11.5055 4.25181C12.4177 5.47681 12.2054 7.05987 12.0428 7.75739L13.0167 7.98444C13.1916 7.23388 13.5008 5.25692 12.3076 3.65455L11.5055 4.25181ZM12.3396 4.20318L12.4969 3.93062L11.6309 3.43062L11.4735 3.70318L12.3396 4.20318ZM5.7448 4.17159C6.24099 3.69819 7.52915 2.67108 9.08241 2.85282L9.19863 1.8596C7.16922 1.62214 5.58562 2.94134 5.05451 3.44806L5.7448 4.17159ZM9.57353 2.60621L9.73089 2.33366L8.86487 1.83366L8.70751 2.10621L9.57353 2.60621ZM11.5871 13.6734L11.5871 12.4156L10.5871 12.4156V13.6734L11.5871 13.6734ZM12.1111 10.0727L12.7472 8.72169L11.8425 8.29571L11.2064 9.64675L12.1111 10.0727ZM1.37815 8.3584L2.50103 7.69156L1.99042 6.83175L0.867543 7.49858L1.37815 8.3584ZM4.45876 5.89838L5.43133 4.5463L4.61954 3.96236L3.64697 5.31444L4.45876 5.89838ZM11.4677 14.2983C11.5689 14.0744 11.5871 13.8479 11.5871 13.6734L10.5871 13.6734C10.5871 13.7858 10.5734 13.849 10.5565 13.8865L11.4677 14.2983ZM1.21676 8.48698C1.24003 8.45501 1.2858 8.41324 1.37815 8.3584L0.867544 7.49858C0.723889 7.58389 0.54638 7.70866 0.408153 7.89863L1.21676 8.48698ZM11.5871 12.4156C11.5871 11.6056 11.766 10.8056 12.1111 10.0727L11.2064 9.64675C10.7986 10.5129 10.5871 11.4583 10.5871 12.4156L11.5871 12.4156ZM2.50103 7.69156C3.27003 7.23489 3.9365 6.62443 4.45876 5.89838L3.64697 5.31444C3.20505 5.92879 2.64111 6.44533 1.99042 6.83175L2.50103 7.69156ZM5.05451 3.44806C4.88096 3.61363 4.74026 3.79453 4.61954 3.96236L5.43133 4.5463C5.53787 4.39819 5.63676 4.27467 5.7448 4.17159L5.05451 3.44806ZM12.0428 7.75739C12.0027 7.92907 11.9332 8.10299 11.8425 8.29571L12.7472 8.72169C12.8503 8.50281 12.9534 8.25582 13.0167 7.98444L12.0428 7.75739Z" fill="white"/>
</svg>
