<svg width="16" height="16" viewBox="0 0 16 16" fill="none" xmlns="http://www.w3.org/2000/svg">
<path d="M0.875 4.16347H1.375H0.875ZM0.875 12.9327H0.375H0.875ZM12.9327 15.125V14.625V15.125ZM3.06731 15.125V15.625H3.06731L3.06731 15.125ZM15.125 4.16349H14.625H15.125ZM15.125 12.9327H15.625H15.125ZM12.9327 1.97118L12.9327 2.47118L12.9327 1.97118ZM3.06731 1.97116L3.06731 1.47116L3.06731 1.97116ZM15.125 6.30769C15.4011 6.30769 15.625 6.08383 15.625 5.80769C15.625 5.53155 15.4011 5.30769 15.125 5.30769V6.30769ZM0.875 5.30769C0.598858 5.30769 0.375 5.53155 0.375 5.80769C0.375 6.08383 0.598858 6.30769 0.875 6.30769V5.30769ZM4.21154 3.06731C4.21154 3.34345 4.43539 3.56731 4.71154 3.56731C4.98768 3.56731 5.21154 3.34345 5.21154 3.06731H4.21154ZM5.21154 0.875C5.21154 0.598858 4.98768 0.375 4.71154 0.375C4.43539 0.375 4.21154 0.598858 4.21154 0.875H5.21154ZM10.7885 3.06731C10.7885 3.34345 11.0123 3.56731 11.2885 3.56731C11.5646 3.56731 11.7885 3.34345 11.7885 3.06731L10.7885 3.06731ZM11.7885 0.875C11.7885 0.598857 11.5646 0.375 11.2885 0.375C11.0123 0.375 10.7885 0.598858 10.7885 0.875L11.7885 0.875ZM0.375 4.16347L0.375 12.9327H1.375L1.375 4.16347H0.375ZM12.9327 14.625L3.06731 14.625L3.06731 15.625L12.9327 15.625V14.625ZM14.625 4.16349V12.9327H15.625V4.16349H14.625ZM12.9327 1.47118L3.06731 1.47116L3.06731 2.47116L12.9327 2.47118L12.9327 1.47118ZM15.625 4.16349C15.625 2.67657 14.4196 1.47118 12.9327 1.47118L12.9327 2.47118C13.8673 2.47118 14.625 3.22885 14.625 4.16349H15.625ZM1.375 4.16347C1.375 3.22883 2.13267 2.47116 3.06731 2.47116L3.06731 1.47116C1.58039 1.47115 0.375 2.67654 0.375 4.16347H1.375ZM0.375 12.9327C0.375 14.4196 1.58039 15.625 3.06731 15.625L3.06731 14.625C2.13267 14.625 1.375 13.8673 1.375 12.9327H0.375ZM12.9327 15.625C14.4196 15.625 15.625 14.4196 15.625 12.9327H14.625C14.625 13.8673 13.8673 14.625 12.9327 14.625V15.625ZM15.125 5.30769H0.875V6.30769H15.125V5.30769ZM5.21154 3.06731V0.875H4.21154V3.06731H5.21154ZM11.7885 3.06731L11.7885 0.875L10.7885 0.875L10.7885 3.06731L11.7885 3.06731Z" fill="white"/>
</svg>
