<svg width="16" height="13" viewBox="0 0 16 13" fill="none" xmlns="http://www.w3.org/2000/svg">
<path d="M9.63341 6.3147L9.90564 6.73409L9.63341 6.3147ZM15.125 2.75002H15.625V2.75002L15.125 2.75002ZM6.36661 6.3147L6.63884 5.89531L6.36661 6.3147ZM2.375 11.75V11.25V11.75ZM13.625 11.75V12.25V11.75ZM0.875 10.25H0.375H0.875ZM15.125 10.25H14.625H15.125ZM2.375 1.25V1.75H2.375L2.375 1.25ZM13.625 1.25001L13.625 0.750011L13.625 1.25001ZM9.36117 5.89531L14.8528 2.33063L15.3972 3.16941L9.90564 6.73409L9.36117 5.89531ZM6.09438 6.73409L0.602767 3.16941L1.14723 2.33063L6.63884 5.89531L6.09438 6.73409ZM9.90564 6.73409C8.74661 7.48643 7.25341 7.48644 6.09438 6.73409L6.63884 5.89531C7.46673 6.4327 8.53329 6.4327 9.36117 5.89531L9.90564 6.73409ZM2.375 11.25L13.625 11.25V12.25L2.375 12.25V11.25ZM1.375 2.75002V10.25H0.375V2.75002H1.375ZM15.625 2.75002L15.625 10.25H14.625L14.625 2.75002L15.625 2.75002ZM2.375 0.75L13.625 0.750011L13.625 1.75001L2.375 1.75V0.75ZM0.375 2.75002C0.375 1.64546 1.27042 0.749998 2.375 0.75L2.375 1.75C1.82273 1.75 1.375 2.19773 1.375 2.75002H0.375ZM14.625 2.75002C14.625 2.19773 14.1773 1.75001 13.625 1.75001L13.625 0.750011C14.7296 0.750012 15.625 1.64546 15.625 2.75002H14.625ZM13.625 11.25C14.1773 11.25 14.625 10.8023 14.625 10.25H15.625C15.625 11.3546 14.7296 12.25 13.625 12.25V11.25ZM2.375 12.25C1.27043 12.25 0.375 11.3546 0.375 10.25H1.375C1.375 10.8023 1.82271 11.25 2.375 11.25V12.25Z" fill="white"/>
</svg>
