<svg width="18" height="17" viewBox="0 0 18 17" fill="none" xmlns="http://www.w3.org/2000/svg">
<path d="M17 8.54889C17 4.10361 13.4183 0.5 9 0.5C4.58172 0.5 1 4.10361 1 8.54889C1 12.1571 3.35987 15.2107 6.61147 16.2328C7.19767 16.4171 7.75 15.9442 7.75 15.3297V11.8755C7.75 11.3232 7.30228 10.8755 6.75 10.8755H6.71875C6.16647 10.8755 5.71875 10.4278 5.71875 9.87552V9.54889C5.71875 8.99661 6.16647 8.54889 6.71875 8.54889H6.75C7.30228 8.54889 7.75 8.10118 7.75 7.54889V6.77562C7.75 4.75837 8.94438 3.6441 10.7717 3.6441C11.1012 3.6441 11.4366 3.66639 11.7266 3.69419C12.2113 3.74066 12.5625 4.15726 12.5625 4.64427V4.78208C12.5625 5.33437 12.106 5.78208 11.5538 5.78208V5.78208C10.56 5.78208 10.25 6.40257 10.25 7.03972V7.54889C10.25 8.10118 10.6977 8.54889 11.25 8.54889H11.3048C11.9171 8.54889 12.3856 9.09426 12.2933 9.6996L12.2435 10.0262C12.1691 10.5147 11.7468 10.8755 11.2527 10.8755V10.8755C10.7004 10.8755 10.25 11.3232 10.25 11.8755V15.3297C10.25 15.9442 10.8023 16.4171 11.3885 16.2328C14.6401 15.2107 17 12.1571 17 8.54889Z" stroke="white"/>
</svg>
