<svg width="17" height="17" viewBox="0 0 17 17" fill="none" xmlns="http://www.w3.org/2000/svg">
<mask id="path-1-inside-1_28730_12094" fill="white">
<path d="M8.99756 1.93645C11.1361 1.93645 11.3894 1.94583 12.2304 1.98334C13.012 2.01774 13.4341 2.14905 13.7155 2.25848C14.0875 2.4023 14.3564 2.57738 14.6347 2.85564C14.9161 3.13703 15.088 3.40279 15.2319 3.77484C15.3413 4.05623 15.4726 4.48144 15.507 5.25994C15.5445 6.10411 15.5539 6.35735 15.5539 8.49277C15.5539 10.6313 15.5445 10.8846 15.507 11.7256C15.4726 12.5072 15.3413 12.9293 15.2319 13.2107C15.088 13.5828 14.9129 13.8516 14.6347 14.1299C14.3533 14.4113 14.0875 14.5832 13.7155 14.7271C13.4341 14.8365 13.0089 14.9678 12.2304 15.0022C11.3862 15.0397 11.133 15.0491 8.99756 15.0491C6.85902 15.0491 6.60577 15.0397 5.76473 15.0022C4.9831 14.9678 4.56102 14.8365 4.27963 14.7271C3.90758 14.5832 3.63869 14.4082 3.36043 14.1299C3.07905 13.8485 2.90709 13.5828 2.76327 13.2107C2.65384 12.9293 2.52252 12.5041 2.48813 11.7256C2.45061 10.8814 2.44123 10.6282 2.44123 8.49277C2.44123 6.35423 2.45061 6.10098 2.48813 5.25994C2.52252 4.47831 2.65384 4.05623 2.76327 3.77484C2.90709 3.40279 3.08217 3.13391 3.36043 2.85564C3.64182 2.57426 3.90758 2.4023 4.27963 2.25848C4.56102 2.14905 4.98623 2.01774 5.76473 1.98334C6.60577 1.94583 6.85902 1.93645 8.99756 1.93645ZM8.99756 0.495117C6.82463 0.495117 6.55262 0.504497 5.69908 0.542015C4.84866 0.579533 4.264 0.717101 3.7575 0.914072C3.22912 1.12042 2.78203 1.39243 2.33806 1.83952C1.89097 2.28349 1.61896 2.73058 1.41261 3.25584C1.21564 3.76546 1.07807 4.347 1.04055 5.19741C1.00303 6.05408 0.993652 6.32609 0.993652 8.49903C0.993652 10.672 1.00303 10.944 1.04055 11.7975C1.07807 12.6479 1.21564 13.2326 1.41261 13.7391C1.61896 14.2675 1.89097 14.7146 2.33806 15.1585C2.78203 15.6025 3.22912 15.8776 3.75438 16.0809C4.264 16.2778 4.84553 16.4154 5.69595 16.4529C6.54949 16.4904 6.8215 16.4998 8.99443 16.4998C11.1674 16.4998 11.4394 16.4904 12.2929 16.4529C13.1433 16.4154 13.728 16.2778 14.2345 16.0809C14.7598 15.8776 15.2068 15.6025 15.6508 15.1585C16.0948 14.7146 16.3699 14.2675 16.5731 13.7422C16.7701 13.2326 16.9077 12.6511 16.9452 11.8006C16.9827 10.9471 16.9921 10.6751 16.9921 8.50215C16.9921 6.32922 16.9827 6.05721 16.9452 5.20367C16.9077 4.35325 16.7701 3.76859 16.5731 3.26209C16.3762 2.73058 16.1042 2.28349 15.6571 1.83952C15.2131 1.39556 14.766 1.12042 14.2407 0.917198C13.7311 0.720227 13.1496 0.58266 12.2992 0.545142C11.4425 0.504497 11.1705 0.495117 8.99756 0.495117Z"/>
</mask>
<path d="M8.99756 1.93645C11.1361 1.93645 11.3894 1.94583 12.2304 1.98334C13.012 2.01774 13.4341 2.14905 13.7155 2.25848C14.0875 2.4023 14.3564 2.57738 14.6347 2.85564C14.9161 3.13703 15.088 3.40279 15.2319 3.77484C15.3413 4.05623 15.4726 4.48144 15.507 5.25994C15.5445 6.10411 15.5539 6.35735 15.5539 8.49277C15.5539 10.6313 15.5445 10.8846 15.507 11.7256C15.4726 12.5072 15.3413 12.9293 15.2319 13.2107C15.088 13.5828 14.9129 13.8516 14.6347 14.1299C14.3533 14.4113 14.0875 14.5832 13.7155 14.7271C13.4341 14.8365 13.0089 14.9678 12.2304 15.0022C11.3862 15.0397 11.133 15.0491 8.99756 15.0491C6.85902 15.0491 6.60577 15.0397 5.76473 15.0022C4.9831 14.9678 4.56102 14.8365 4.27963 14.7271C3.90758 14.5832 3.63869 14.4082 3.36043 14.1299C3.07905 13.8485 2.90709 13.5828 2.76327 13.2107C2.65384 12.9293 2.52252 12.5041 2.48813 11.7256C2.45061 10.8814 2.44123 10.6282 2.44123 8.49277C2.44123 6.35423 2.45061 6.10098 2.48813 5.25994C2.52252 4.47831 2.65384 4.05623 2.76327 3.77484C2.90709 3.40279 3.08217 3.13391 3.36043 2.85564C3.64182 2.57426 3.90758 2.4023 4.27963 2.25848C4.56102 2.14905 4.98623 2.01774 5.76473 1.98334C6.60577 1.94583 6.85902 1.93645 8.99756 1.93645ZM8.99756 0.495117C6.82463 0.495117 6.55262 0.504497 5.69908 0.542015C4.84866 0.579533 4.264 0.717101 3.7575 0.914072C3.22912 1.12042 2.78203 1.39243 2.33806 1.83952C1.89097 2.28349 1.61896 2.73058 1.41261 3.25584C1.21564 3.76546 1.07807 4.347 1.04055 5.19741C1.00303 6.05408 0.993652 6.32609 0.993652 8.49903C0.993652 10.672 1.00303 10.944 1.04055 11.7975C1.07807 12.6479 1.21564 13.2326 1.41261 13.7391C1.61896 14.2675 1.89097 14.7146 2.33806 15.1585C2.78203 15.6025 3.22912 15.8776 3.75438 16.0809C4.264 16.2778 4.84553 16.4154 5.69595 16.4529C6.54949 16.4904 6.8215 16.4998 8.99443 16.4998C11.1674 16.4998 11.4394 16.4904 12.2929 16.4529C13.1433 16.4154 13.728 16.2778 14.2345 16.0809C14.7598 15.8776 15.2068 15.6025 15.6508 15.1585C16.0948 14.7146 16.3699 14.2675 16.5731 13.7422C16.7701 13.2326 16.9077 12.6511 16.9452 11.8006C16.9827 10.9471 16.9921 10.6751 16.9921 8.50215C16.9921 6.32922 16.9827 6.05721 16.9452 5.20367C16.9077 4.35325 16.7701 3.76859 16.5731 3.26209C16.3762 2.73058 16.1042 2.28349 15.6571 1.83952C15.2131 1.39556 14.766 1.12042 14.2407 0.917198C13.7311 0.720227 13.1496 0.58266 12.2992 0.545142C11.4425 0.504497 11.1705 0.495117 8.99756 0.495117Z" fill="white"/>
<path d="M12.2304 1.98334L12.2215 2.18314L12.2216 2.18315L12.2304 1.98334ZM13.7155 2.25848L13.643 2.44488L13.6434 2.44503L13.7155 2.25848ZM14.6347 2.85564L14.7761 2.71422L14.6347 2.85564ZM15.2319 3.77484L15.0453 3.84695L15.0455 3.84733L15.2319 3.77484ZM15.507 5.25994L15.3072 5.26877L15.3072 5.26882L15.507 5.25994ZM15.507 11.7256L15.3072 11.7167L15.3072 11.7168L15.507 11.7256ZM15.2319 13.2107L15.0455 13.1382L15.0453 13.1386L15.2319 13.2107ZM14.6347 14.1299L14.4933 13.9885L14.6347 14.1299ZM13.7155 14.7271L13.6434 14.5405L13.643 14.5407L13.7155 14.7271ZM12.2304 15.0022L12.2216 14.8024L12.2215 14.8024L12.2304 15.0022ZM5.76473 15.0022L5.77365 14.8024L5.77352 14.8024L5.76473 15.0022ZM4.27963 14.7271L4.35212 14.5407L4.35174 14.5405L4.27963 14.7271ZM3.36043 14.1299L3.21901 14.2713L3.36043 14.1299ZM2.76327 13.2107L2.94981 13.1386L2.94967 13.1382L2.76327 13.2107ZM2.48813 11.7256L2.68794 11.7168L2.68793 11.7167L2.48813 11.7256ZM2.48813 5.25994L2.68793 5.26886L2.68794 5.26873L2.48813 5.25994ZM2.76327 3.77484L2.94967 3.84733L2.94981 3.84695L2.76327 3.77484ZM3.36043 2.85564L3.50185 2.99707L3.36043 2.85564ZM4.27963 2.25848L4.35174 2.44503L4.35212 2.44488L4.27963 2.25848ZM5.76473 1.98334L5.77356 2.18315L5.77365 2.18314L5.76473 1.98334ZM5.69908 0.542015L5.69029 0.342208L5.69026 0.342209L5.69908 0.542015ZM3.7575 0.914072L3.68501 0.727671L3.68475 0.727774L3.7575 0.914072ZM2.33806 1.83952L2.47899 1.98144L2.47998 1.98045L2.33806 1.83952ZM1.41261 3.25584L1.22645 3.18271L1.22606 3.18374L1.41261 3.25584ZM1.04055 5.19741L0.840745 5.1886L0.840742 5.18866L1.04055 5.19741ZM1.04055 11.7975L0.840743 11.8063L0.840745 11.8063L1.04055 11.7975ZM1.41261 13.7391L1.22621 13.8116L1.22631 13.8118L1.41261 13.7391ZM2.33806 15.1585L2.47948 15.0171L2.47898 15.0166L2.33806 15.1585ZM3.75438 16.0809L3.68221 16.2674L3.68227 16.2674L3.75438 16.0809ZM5.69595 16.4529L5.68713 16.6527H5.68717L5.69595 16.4529ZM12.2929 16.4529L12.3017 16.6527H12.3017L12.2929 16.4529ZM14.2345 16.0809L14.1623 15.8943L14.162 15.8945L14.2345 16.0809ZM16.5731 13.7422L16.7597 13.8144L16.7597 13.8143L16.5731 13.7422ZM16.9452 11.8006L17.145 11.8095V11.8094L16.9452 11.8006ZM16.9452 5.20367L17.145 5.19488V5.19485L16.9452 5.20367ZM16.5731 3.26209L16.3856 3.3316L16.3867 3.33458L16.5731 3.26209ZM15.6571 1.83952L15.5156 1.98095L15.5161 1.98144L15.6571 1.83952ZM14.2407 0.917198L14.3129 0.730673L14.3128 0.730647L14.2407 0.917198ZM12.2992 0.545142L12.2897 0.744918L12.2904 0.744947L12.2992 0.545142ZM8.99756 2.13645C11.135 2.13645 11.3848 2.14582 12.2215 2.18314L12.2393 1.78354C11.3939 1.74583 11.1372 1.73645 8.99756 1.73645V2.13645ZM12.2216 2.18315C12.9807 2.21655 13.3813 2.34312 13.643 2.44488L13.788 2.07208C13.4869 1.95498 13.0433 1.81892 12.2392 1.78354L12.2216 2.18315ZM13.6434 2.44503C13.9896 2.57887 14.2349 2.73866 14.4933 2.99707L14.7761 2.71422C14.478 2.41611 14.1855 2.22573 13.7876 2.07193L13.6434 2.44503ZM14.4933 2.99707C14.7547 3.25848 14.9114 3.50054 15.0453 3.84695L15.4184 3.70273C15.2647 3.30504 15.0775 3.01559 14.7761 2.71422L14.4933 2.99707ZM15.0455 3.84733C15.1472 4.10891 15.2738 4.51264 15.3072 5.26877L15.7068 5.25112C15.6714 4.45023 15.5354 4.00355 15.4183 3.70235L15.0455 3.84733ZM15.3072 5.26882C15.3445 6.10863 15.3539 6.35848 15.3539 8.49277H15.7539C15.7539 6.35623 15.7445 6.09958 15.7068 5.25106L15.3072 5.26882ZM15.3539 8.49277C15.3539 10.6302 15.3445 10.88 15.3072 11.7167L15.7068 11.7345C15.7445 10.8891 15.7539 10.6324 15.7539 8.49277H15.3539ZM15.3072 11.7168C15.2738 12.4759 15.1472 12.8765 15.0455 13.1382L15.4183 13.2832C15.5354 12.9821 15.6714 12.5385 15.7068 11.7344L15.3072 11.7168ZM15.0453 13.1386C14.9115 13.4848 14.7517 13.7301 14.4933 13.9885L14.7761 14.2713C15.0742 13.9732 15.2646 13.6807 15.4184 13.2828L15.0453 13.1386ZM14.4933 13.9885C14.2319 14.2499 13.9898 14.4066 13.6434 14.5405L13.7876 14.9136C14.1853 14.7599 14.4747 14.5727 14.7761 14.2713L14.4933 13.9885ZM13.643 14.5407C13.3814 14.6424 12.9777 14.769 12.2216 14.8024L12.2392 15.202C13.0401 15.1666 13.4868 15.0306 13.788 14.9135L13.643 14.5407ZM12.2215 14.8024C11.3817 14.8397 11.1319 14.8491 8.99756 14.8491V15.2491C11.1341 15.2491 11.3908 15.2397 12.2393 15.202L12.2215 14.8024ZM8.99756 14.8491C6.86012 14.8491 6.6103 14.8397 5.77365 14.8024L5.75582 15.202C6.60124 15.2397 6.85791 15.2491 8.99756 15.2491V14.8491ZM5.77352 14.8024C5.0144 14.769 4.6138 14.6424 4.35212 14.5407L4.20714 14.9135C4.50824 15.0306 4.95181 15.1666 5.75594 15.202L5.77352 14.8024ZM4.35174 14.5405C4.00549 14.4067 3.76026 14.2469 3.50185 13.9885L3.21901 14.2713C3.51712 14.5694 3.80966 14.7598 4.20752 14.9136L4.35174 14.5405ZM3.50185 13.9885C3.24044 13.7271 3.08372 13.485 2.94981 13.1386L2.57672 13.2828C2.73045 13.6805 2.91765 13.97 3.21901 14.2713L3.50185 13.9885ZM2.94967 13.1382C2.84794 12.8766 2.72134 12.4729 2.68794 11.7168L2.28833 11.7344C2.32371 12.5353 2.45973 12.982 2.57687 13.2832L2.94967 13.1382ZM2.68793 11.7167C2.65061 10.8769 2.64123 10.6271 2.64123 8.49277H2.24123C2.24123 10.6293 2.25062 10.886 2.28833 11.7345L2.68793 11.7167ZM2.64123 8.49277C2.64123 6.35533 2.65061 6.10551 2.68793 5.26886L2.28833 5.25103C2.25062 6.09645 2.24123 6.35312 2.24123 8.49277H2.64123ZM2.68794 5.26873C2.72134 4.50961 2.84791 4.10901 2.94967 3.84733L2.57687 3.70235C2.45977 4.00345 2.32371 4.44702 2.28833 5.25115L2.68794 5.26873ZM2.94981 3.84695C3.08366 3.5007 3.24345 3.25547 3.50185 2.99707L3.21901 2.71422C2.9209 3.01234 2.73051 3.30487 2.57672 3.70273L2.94981 3.84695ZM3.50185 2.99707C3.76327 2.73566 4.00532 2.57894 4.35174 2.44503L4.20752 2.07193C3.80983 2.22566 3.52038 2.41286 3.21901 2.71422L3.50185 2.99707ZM4.35212 2.44488C4.6137 2.34315 5.01743 2.21655 5.77356 2.18315L5.75591 1.78354C4.95502 1.81892 4.50834 1.95495 4.20714 2.07208L4.35212 2.44488ZM5.77365 2.18314C6.6103 2.14582 6.86012 2.13645 8.99756 2.13645V1.73645C6.85791 1.73645 6.60124 1.74583 5.75582 1.78354L5.77365 2.18314ZM8.99756 0.295117C6.82359 0.295117 6.54818 0.304499 5.69029 0.342208L5.70786 0.741822C6.55705 0.704495 6.82567 0.695117 8.99756 0.695117V0.295117ZM5.69026 0.342209C4.82036 0.380587 4.21393 0.521981 3.68501 0.727671L3.82999 1.10047C4.31407 0.91222 4.87696 0.77848 5.70789 0.741821L5.69026 0.342209ZM3.68475 0.727774C3.13305 0.943228 2.66166 1.2298 2.19614 1.6986L2.47998 1.98045C2.90239 1.55506 3.32518 1.29762 3.83026 1.10037L3.68475 0.727774ZM2.19713 1.69761C1.72839 2.16308 1.44188 2.63435 1.22646 3.18271L1.59876 3.32897C1.79603 2.82681 2.05354 2.40391 2.47898 1.98144L2.19713 1.69761ZM1.22606 3.18374C1.02058 3.71536 0.879132 4.31848 0.840745 5.1886L1.24036 5.20623C1.27701 4.37551 1.41069 3.81557 1.59916 3.32794L1.22606 3.18374ZM0.840742 5.18866C0.803034 6.04965 0.793652 6.32504 0.793652 8.49903H1.19365C1.19365 6.32714 1.20303 6.05851 1.24036 5.20616L0.840742 5.18866ZM0.793652 8.49903C0.793652 10.673 0.803034 10.9484 0.840743 11.8063L1.24036 11.7887C1.20303 10.9395 1.19365 10.6709 1.19365 8.49903H0.793652ZM0.840745 11.8063C0.879122 12.6762 1.02052 13.2827 1.22621 13.8116L1.59901 13.6666C1.41076 13.1825 1.27701 12.6196 1.24036 11.7887L0.840745 11.8063ZM1.22631 13.8118C1.44176 14.3635 1.72834 14.8349 2.19713 15.3004L2.47898 15.0166C2.05359 14.5942 1.79615 14.1714 1.5989 13.6663L1.22631 13.8118ZM2.19664 15.2999C2.66146 15.7648 3.13256 16.0547 3.68221 16.2674L3.82654 15.8943C3.32568 15.7005 2.90259 15.4402 2.47948 15.0171L2.19664 15.2999ZM3.68227 16.2674C4.2139 16.4729 4.81702 16.6143 5.68713 16.6527L5.70476 16.2531C4.87405 16.2165 4.3141 16.0828 3.82648 15.8943L3.68227 16.2674ZM5.68717 16.6527C6.54505 16.6904 6.82046 16.6998 8.99443 16.6998V16.2998C6.82254 16.2998 6.55393 16.2904 5.70473 16.2531L5.68717 16.6527ZM8.99443 16.6998C11.1684 16.6998 11.4438 16.6904 12.3017 16.6527L12.2841 16.2531C11.4349 16.2904 11.1663 16.2998 8.99443 16.2998V16.6998ZM12.3017 16.6527C13.1716 16.6143 13.7781 16.4729 14.307 16.2673L14.162 15.8945C13.6779 16.0827 13.115 16.2164 12.2841 16.2531L12.3017 16.6527ZM14.3067 16.2674C14.8563 16.0547 15.3274 15.7648 15.7922 15.2999L15.5094 15.0171C15.0863 15.4402 14.6632 15.7005 14.1623 15.8943L14.3067 16.2674ZM15.7922 15.2999C16.2571 14.8351 16.547 14.364 16.7597 13.8144L16.3866 13.67C16.1928 14.1709 15.9325 14.594 15.5094 15.0171L15.7922 15.2999ZM16.7597 13.8143C16.9652 13.2827 17.1066 12.6796 17.145 11.8095L16.7454 11.7918C16.7087 12.6225 16.5751 13.1825 16.3866 13.6701L16.7597 13.8143ZM17.145 11.8094C17.1827 10.9515 17.1921 10.6761 17.1921 8.50215H16.7921C16.7921 10.674 16.7827 10.9427 16.7454 11.7919L17.145 11.8094ZM17.1921 8.50215C17.1921 6.32818 17.1827 6.05277 17.145 5.19488L16.7454 5.21245C16.7827 6.06165 16.7921 6.33026 16.7921 8.50215H17.1921ZM17.145 5.19485C17.1066 4.32496 16.9652 3.71852 16.7595 3.1896L16.3867 3.33458C16.575 3.81866 16.7087 4.38155 16.7454 5.21248L17.145 5.19485ZM16.7607 3.19259C16.5542 2.63536 16.2668 2.16315 15.798 1.69761L15.5161 1.98144C15.9415 2.40383 16.1982 2.82581 16.3856 3.33159L16.7607 3.19259ZM15.7985 1.6981C15.3337 1.23328 14.8626 0.943336 14.3129 0.730673L14.1686 1.10372C14.6694 1.29751 15.0925 1.55783 15.5156 1.98094L15.7985 1.6981ZM14.3128 0.730647C13.7812 0.525173 13.1781 0.383723 12.308 0.345336L12.2904 0.744947C13.1211 0.781596 13.681 0.915281 14.1686 1.10375L14.3128 0.730647ZM12.3087 0.345366C11.4472 0.304496 11.1715 0.295117 8.99756 0.295117V0.695117C11.1695 0.695117 11.4378 0.704498 12.2897 0.744917L12.3087 0.345366Z" fill="white" mask="url(#path-1-inside-1_28730_12094)"/>
<path d="M4.98623 8.49908C4.98623 6.28445 6.78298 4.4877 8.99761 4.4877C11.2122 4.4877 13.009 6.28445 13.009 8.49908C13.009 10.7137 11.2122 12.5105 8.99761 12.5105C6.78298 12.5105 4.98623 10.7137 4.98623 8.49908ZM6.23069 8.49908C6.23069 10.0269 7.46979 11.266 8.99761 11.266C10.5254 11.266 11.7645 10.0269 11.7645 8.49908C11.7645 6.97126 10.5254 5.73215 8.99761 5.73215C7.46979 5.73215 6.23069 6.97126 6.23069 8.49908Z" fill="white" stroke="white" stroke-width="0.2"/>
<path d="M14.2315 4.22547C14.2315 4.75698 13.8 5.18531 13.2716 5.18531C12.7401 5.18531 12.3118 4.75385 12.3118 4.22547C12.3118 3.69396 12.7432 3.26562 13.2716 3.26562C13.8 3.26562 14.2315 3.69709 14.2315 4.22547Z" fill="white"/>
</svg>
