<svg width="16" height="16" viewBox="0 0 16 16" fill="none" xmlns="http://www.w3.org/2000/svg">
<path d="M3.14603 2.53798L2.79578 2.89481V2.89481L3.14603 2.53798ZM4.29072 3.66153L4.64096 3.30469L4.29072 3.66153ZM3.44042 6.24745C3.24335 6.44089 2.92678 6.43793 2.73335 6.24086C2.53992 6.04379 2.54287 5.72722 2.73994 5.53378L3.44042 6.24745ZM4.29072 4.71225L3.94048 4.35542V4.35542L4.29072 4.71225ZM1.22523 4.07318C1.02816 4.26661 0.711591 4.26366 0.518157 4.06659C0.324723 3.86951 0.327673 3.55294 0.524747 3.35951L1.22523 4.07318ZM2.07552 2.53798L2.42577 2.89481L2.42577 2.89481L2.07552 2.53798ZM1.54974 1.60683C1.35267 1.4134 1.34972 1.09683 1.54315 0.899758C1.73659 0.702684 2.05316 0.699733 2.25023 0.893166L1.54974 1.60683ZM8.33376 6.86432C8.53083 7.05775 8.53378 7.37432 8.34035 7.5714C8.14691 7.76847 7.83034 7.77142 7.63327 7.57799L8.33376 6.86432ZM3.49627 2.18114L4.64096 3.30469L3.94048 4.01836L2.79578 2.89481L3.49627 2.18114ZM2.73994 5.53378L3.94048 4.35542L4.64096 5.06909L3.44042 6.24745L2.73994 5.53378ZM0.524747 3.35951L1.72528 2.18115L2.42577 2.89481L1.22523 4.07318L0.524747 3.35951ZM2.79578 2.89481C2.69465 2.79555 2.5269 2.79555 2.42577 2.89481L1.72528 2.18115C2.21537 1.70011 3.00618 1.7001 3.49627 2.18114L2.79578 2.89481ZM4.64096 3.30469C5.13625 3.79083 5.13625 4.58295 4.64096 5.06909L3.94048 4.35542C4.03641 4.26126 4.03641 4.11252 3.94048 4.01836L4.64096 3.30469ZM7.16096 10.5962C7.16096 12.6054 8.82301 14.25 10.893 14.25V15.25C8.28839 15.25 6.16096 13.1752 6.16096 10.5962H7.16096ZM10.893 14.25C12.9629 14.25 14.625 12.6054 14.625 10.5962H15.625C15.625 13.1752 13.4976 15.25 10.893 15.25V14.25ZM14.625 10.5962C14.625 8.58697 12.9629 6.94234 10.893 6.94234V5.94234C13.4976 5.94234 15.625 8.01719 15.625 10.5962H14.625ZM10.893 6.94234C8.82301 6.94234 7.16096 8.58697 7.16096 10.5962H6.16096C6.16096 8.01719 8.28839 5.94234 10.893 5.94234V6.94234ZM2.25023 0.893166L8.33376 6.86432L7.63327 7.57799L1.54974 1.60683L2.25023 0.893166Z" fill="white"/>
</svg>
