<svg width="20" height="21" viewBox="0 0 20 21" fill="none" xmlns="http://www.w3.org/2000/svg">
<path d="M0.5 10C0.223858 10 0 10.2239 0 10.5C0 10.7761 0.223858 11 0.5 11V10ZM19.5 11C19.7761 11 20 10.7761 20 10.5C20 10.2239 19.7761 10 19.5 10V11ZM10.5 1C10.5 0.723858 10.2761 0.5 10 0.5C9.72386 0.5 9.5 0.723858 9.5 1H10.5ZM9.5 20C9.5 20.2761 9.72386 20.5 10 20.5C10.2761 20.5 10.5 20.2761 10.5 20H9.5ZM16.8077 10.5C16.8077 14.2598 13.7598 17.3077 10 17.3077V18.3077C14.3121 18.3077 17.8077 14.8121 17.8077 10.5H16.8077ZM10 17.3077C6.24022 17.3077 3.19231 14.2598 3.19231 10.5H2.19231C2.19231 14.8121 5.68793 18.3077 10 18.3077V17.3077ZM3.19231 10.5C3.19231 6.74022 6.24022 3.69231 10 3.69231V2.69231C5.68793 2.69231 2.19231 6.18793 2.19231 10.5H3.19231ZM10 3.69231C13.7598 3.69231 16.8077 6.74022 16.8077 10.5H17.8077C17.8077 6.18793 14.3121 2.69231 10 2.69231V3.69231ZM0.5 11H2.69231V10H0.5V11ZM17.3077 11H19.5V10H17.3077V11ZM9.5 1V3.19231H10.5V1H9.5ZM9.5 17.8077V20H10.5V17.8077H9.5ZM11.6923 10.5C11.6923 11.4346 10.9346 12.1923 10 12.1923V13.1923C11.4869 13.1923 12.6923 11.9869 12.6923 10.5H11.6923ZM10 12.1923C9.06536 12.1923 8.30769 11.4346 8.30769 10.5H7.30769C7.30769 11.9869 8.51308 13.1923 10 13.1923V12.1923ZM8.30769 10.5C8.30769 9.56536 9.06536 8.80769 10 8.80769V7.80769C8.51308 7.80769 7.30769 9.01308 7.30769 10.5H8.30769ZM10 8.80769C10.9346 8.80769 11.6923 9.56536 11.6923 10.5H12.6923C12.6923 9.01308 11.4869 7.80769 10 7.80769V8.80769Z" fill="white"/>
</svg>
