<svg width="24" height="24" viewBox="0 0 24 24" fill="none" xmlns="http://www.w3.org/2000/svg">
<path d="M12.1675 14.6122V16.3397L15.985 14.8999V16.6274L12.1675 18.0675V23.2503L17.5122 21.2342V19.5064L13.6947 20.9465V19.2191L17.5122 17.7789V12.5962L12.1675 14.6122Z" fill="white"/>
<path d="M6.0592 12.592V14.3195L9.87674 15.7596V17.4871L6.0592 16.047V21.2297L11.404 23.2458V21.5183L7.58616 20.0782V18.3507L11.404 19.7908V14.6081L6.0592 12.592Z" fill="white"/>
<path d="M17.5121 4.74579V3.01831L11.7856 5.1785V10.3612L15.9851 8.77699V10.5048L11.7856 12.0887L7.58616 10.5048V3.59454L6.0592 3.01831V11.6563L11.7856 13.8162L17.5121 11.6563V6.47358L13.3126 8.05753V6.33005L17.5121 4.74579Z" fill="white"/>
<path d="M11.7856 0L6.0592 2.15897L11.7856 4.31916L17.5121 2.15897L11.7856 0Z" fill="white"/>
</svg>
