<svg width="24" height="24" viewBox="0 0 24 24" fill="none" xmlns="http://www.w3.org/2000/svg">
<path d="M10.3666 11.8147L10.0944 12.2341L10.3666 11.8147ZM4.875 8.25002H4.375V8.25002L4.875 8.25002ZM13.6334 11.8147L13.3612 11.3953L13.6334 11.8147ZM17.625 17.25V16.75V17.25ZM6.375 17.25V17.75V17.25ZM19.125 15.75H19.625H19.125ZM4.875 15.75H5.375H4.875ZM17.625 6.75V7.25H17.625L17.625 6.75ZM6.375 6.75001L6.375 6.25001L6.375 6.75001ZM10.6388 11.3953L5.14723 7.83063L4.60277 8.66941L10.0944 12.2341L10.6388 11.3953ZM13.9056 12.2341L19.3972 8.66941L18.8528 7.83063L13.3612 11.3953L13.9056 12.2341ZM10.0944 12.2341C11.2534 12.9864 12.7466 12.9864 13.9056 12.2341L13.3612 11.3953C12.5333 11.9327 11.4667 11.9327 10.6388 11.3953L10.0944 12.2341ZM17.625 16.75L6.375 16.75V17.75L17.625 17.75V16.75ZM18.625 8.25002V15.75H19.625V8.25002H18.625ZM4.375 8.25002L4.375 15.75H5.375L5.375 8.25002L4.375 8.25002ZM17.625 6.25L6.375 6.25001L6.375 7.25001L17.625 7.25V6.25ZM19.625 8.25002C19.625 7.14546 18.7296 6.25 17.625 6.25L17.625 7.25C18.1773 7.25 18.625 7.69773 18.625 8.25002H19.625ZM5.375 8.25002C5.375 7.69773 5.82272 7.25001 6.375 7.25001L6.375 6.25001C5.27043 6.25001 4.375 7.14546 4.375 8.25002H5.375ZM6.375 16.75C5.82272 16.75 5.375 16.3023 5.375 15.75H4.375C4.375 16.8546 5.27043 17.75 6.375 17.75V16.75ZM17.625 17.75C18.7296 17.75 19.625 16.8546 19.625 15.75H18.625C18.625 16.3023 18.1773 16.75 17.625 16.75V17.75Z" fill="white"/>
</svg>
