<svg width="16" height="16" viewBox="0 0 16 16" fill="none" xmlns="http://www.w3.org/2000/svg">
<path d="M5.82452 0.875L6.01001 0.410678L5.32552 0.13724L5.32452 0.874323L5.82452 0.875ZM13.5814 1.49387L13.3953 1.02978L13.5814 1.49387ZM11.3189 2.40094L11.1329 1.93685V1.93685L11.3189 2.40094ZM14.6537 13.4526L14.8395 13.9168H14.8395L14.6537 13.4526ZM11.3092 14.791L11.1235 14.3268H11.1235L11.3092 14.791ZM9.64696 2.40198L9.46147 2.8663L9.64696 2.40198ZM9.63987 14.7921L9.82507 14.3276L9.63987 14.7921ZM5.80774 0.875H6.30774V0.151495L5.63097 0.407293L5.80774 0.875ZM1.85288 2.3698L1.6761 1.9021H1.6761L1.85288 2.3698ZM2.39834 14.5503L2.57484 15.0181H2.57484L2.39834 14.5503ZM0.883207 3.77185L0.383207 3.77149L0.883207 3.77185ZM0.876221 13.4969L0.376221 13.4965L0.876221 13.4969ZM10.6924 3.06731C10.6924 2.79117 10.4685 2.56731 10.1924 2.56731C9.91622 2.56731 9.69236 2.79117 9.69236 3.06731H10.6924ZM9.69236 14.5769C9.69236 14.8531 9.91622 15.0769 10.1924 15.0769C10.4685 15.0769 10.6924 14.8531 10.6924 14.5769H9.69236ZM14.625 2.53808V12.7563H15.625V2.53808H14.625ZM5.32452 0.874323L5.30774 13.2633L6.30774 13.2647L6.32452 0.875677L5.32452 0.874323ZM13.3953 1.02978L11.1329 1.93685L11.505 2.86503L13.7675 1.95797L13.3953 1.02978ZM14.4679 12.9884L11.1235 14.3268L11.495 15.2553L14.8395 13.9168L14.4679 12.9884ZM9.83245 1.93766L6.01001 0.410678L5.63904 1.33932L9.46147 2.8663L9.83245 1.93766ZM9.82507 14.3276L5.99294 12.7995L5.62254 13.7284L9.45467 15.2565L9.82507 14.3276ZM11.1235 14.3268C10.7068 14.4936 10.242 14.4939 9.82507 14.3276L9.45467 15.2565C10.1098 15.5177 10.8402 15.5173 11.495 15.2553L11.1235 14.3268ZM14.625 12.7563C14.625 12.8585 14.5628 12.9504 14.4679 12.9884L14.8395 13.9168C15.314 13.7269 15.625 13.2673 15.625 12.7563H14.625ZM11.1329 1.93685C10.7156 2.10415 10.2499 2.10444 9.83245 1.93766L9.46147 2.8663C10.1175 3.12838 10.8493 3.12793 11.505 2.86503L11.1329 1.93685ZM15.625 2.53808C15.625 1.3879 14.4629 0.601772 13.3953 1.02978L13.7675 1.95797C14.1781 1.79335 14.625 2.0957 14.625 2.53808H15.625ZM5.30774 0.875V13.264H6.30774V0.875H5.30774ZM5.63097 0.407293L1.6761 1.9021L2.02965 2.83751L5.98452 1.34271L5.63097 0.407293ZM5.63125 12.7962L2.22184 14.0825L2.57484 15.0181L5.98424 13.7318L5.63125 12.7962ZM0.383207 3.77149L0.376221 13.4965L1.37622 13.4973L1.38321 3.77221L0.383207 3.77149ZM1.6761 1.9021C0.898523 2.19599 0.383804 2.94022 0.383207 3.77149L1.38321 3.77221C1.38351 3.35657 1.64086 2.98446 2.02965 2.83751L1.6761 1.9021ZM2.22184 14.0825C1.81288 14.2368 1.37591 13.9344 1.37622 13.4973L0.376221 13.4965C0.375405 14.633 1.51153 15.4193 2.57484 15.0181L2.22184 14.0825ZM9.69236 3.06731V14.5769H10.6924V3.06731H9.69236Z" fill="white"/>
</svg>
