<svg width="16" height="16" viewBox="0 0 16 16" fill="none" xmlns="http://www.w3.org/2000/svg">
<mask id="path-1-outside-1_28730_12104" maskUnits="userSpaceOnUse" x="-0.100098" y="0" width="17" height="16" fill="black">
<rect fill="white" x="-0.100098" width="17" height="16"/>
<path d="M8.3999 1C4.27414 1 0.899902 4.08565 0.899902 7.91226C0.899902 9.83846 1.76574 11.5656 3.1416 12.8144C3.36704 13.0191 3.5086 13.3039 3.5086 13.6084V15.4592C3.5086 15.7051 3.76977 15.863 3.98754 15.7488L6.00078 14.7177C6.22015 14.6053 6.47279 14.5803 6.71346 14.6334C7.25601 14.7532 7.81702 14.8245 8.3999 14.8245C12.5257 14.8245 15.8999 11.7389 15.8999 7.91226C15.8999 4.08565 12.5257 1 8.3999 1ZM8.3999 1.643C12.197 1.643 15.2477 4.45864 15.2477 7.91226C15.2477 11.3659 12.197 14.1815 8.3999 14.1815C7.69423 14.1815 7.01149 14.081 6.37205 13.9002C6.29334 13.8808 6.21024 13.8913 6.13885 13.9297L6.13767 13.9303L5.59583 14.2085C4.94023 14.545 4.16077 14.0689 4.16077 13.332V12.9873C4.16077 12.8917 4.1154 12.8017 4.03849 12.7448C2.5176 11.5907 1.55208 9.85382 1.55208 7.91226C1.55208 4.45864 4.60277 1.643 8.3999 1.643ZM8.37876 6.76616C7.98135 6.37434 7.34013 6.38364 6.95424 6.78682L3.73278 10.1527L6.58129 8.57804C6.98009 8.35758 7.4775 8.4346 7.79094 8.76535L8.41324 9.42201C8.8094 9.84005 9.47589 9.83789 9.86935 9.41731L13.0161 6.05358L10.2359 7.59088C9.84808 7.8053 9.36543 7.73895 9.04989 7.42785L8.37876 6.76616Z"/>
</mask>
<path d="M8.3999 1C4.27414 1 0.899902 4.08565 0.899902 7.91226C0.899902 9.83846 1.76574 11.5656 3.1416 12.8144C3.36704 13.0191 3.5086 13.3039 3.5086 13.6084V15.4592C3.5086 15.7051 3.76977 15.863 3.98754 15.7488L6.00078 14.7177C6.22015 14.6053 6.47279 14.5803 6.71346 14.6334C7.25601 14.7532 7.81702 14.8245 8.3999 14.8245C12.5257 14.8245 15.8999 11.7389 15.8999 7.91226C15.8999 4.08565 12.5257 1 8.3999 1ZM8.3999 1.643C12.197 1.643 15.2477 4.45864 15.2477 7.91226C15.2477 11.3659 12.197 14.1815 8.3999 14.1815C7.69423 14.1815 7.01149 14.081 6.37205 13.9002C6.29334 13.8808 6.21024 13.8913 6.13885 13.9297L6.13767 13.9303L5.59583 14.2085C4.94023 14.545 4.16077 14.0689 4.16077 13.332V12.9873C4.16077 12.8917 4.1154 12.8017 4.03849 12.7448C2.5176 11.5907 1.55208 9.85382 1.55208 7.91226C1.55208 4.45864 4.60277 1.643 8.3999 1.643ZM8.37876 6.76616C7.98135 6.37434 7.34013 6.38364 6.95424 6.78682L3.73278 10.1527L6.58129 8.57804C6.98009 8.35758 7.4775 8.4346 7.79094 8.76535L8.41324 9.42201C8.8094 9.84005 9.47589 9.83789 9.86935 9.41731L13.0161 6.05358L10.2359 7.59088C9.84808 7.8053 9.36543 7.73895 9.04989 7.42785L8.37876 6.76616Z" fill="white"/>
<path d="M6.13767 13.9303L6.18335 14.0193L6.18504 14.0184L6.13767 13.9303ZM3.73278 10.1527L3.66054 10.0836L3.78116 10.2402L3.73278 10.1527ZM13.0161 6.05358L13.0891 6.1219L12.9677 5.96607L13.0161 6.05358ZM8.41324 9.42201L8.48582 9.35322L8.41324 9.42201ZM6.58129 8.57804L6.62967 8.66555L6.58129 8.57804ZM7.79094 8.76535L7.86352 8.69657L7.79094 8.76535ZM8.37876 6.76616L8.30855 6.83737L8.37876 6.76616ZM6.00078 14.7177L6.04637 14.8067L6.00078 14.7177ZM6.71346 14.6334L6.6919 14.731L6.71346 14.6334ZM9.04989 7.42785L8.97968 7.49906L9.04989 7.42785ZM6.13885 13.9297L6.09148 13.8416L6.13885 13.9297ZM3.1416 12.8144L3.07439 12.8885L3.1416 12.8144ZM8.3999 0.9C4.22699 0.9 0.799902 4.02268 0.799902 7.91226H0.999902C0.999902 4.14862 4.32129 1.1 8.3999 1.1V0.9ZM0.799902 7.91226C0.799902 9.86971 1.68002 11.6229 3.07439 12.8885L3.20881 12.7404C1.85146 11.5084 0.999902 9.8072 0.999902 7.91226H0.799902ZM3.4086 13.6084V15.4592H3.6086V13.6084H3.4086ZM4.03312 15.8378L6.04637 14.8067L5.9552 14.6287L3.94195 15.6598L4.03312 15.8378ZM6.6919 14.731C7.2405 14.8521 7.80878 14.9245 8.3999 14.9245V14.7245C7.82525 14.7245 7.27152 14.6542 6.73502 14.5357L6.6919 14.731ZM8.3999 14.9245C12.5728 14.9245 15.9999 11.8018 15.9999 7.91226H15.7999C15.7999 11.6759 12.4785 14.7245 8.3999 14.7245V14.9245ZM15.9999 7.91226C15.9999 4.02268 12.5728 0.9 8.3999 0.9V1.1C12.4785 1.1 15.7999 4.14862 15.7999 7.91226H15.9999ZM8.3999 1.743C12.1501 1.743 15.1477 4.52177 15.1477 7.91226H15.3477C15.3477 4.39551 12.244 1.543 8.3999 1.543V1.743ZM15.1477 7.91226C15.1477 11.3027 12.1501 14.0815 8.3999 14.0815V14.2815C12.244 14.2815 15.3477 11.429 15.3477 7.91226H15.1477ZM8.3999 14.0815C7.70372 14.0815 7.03012 13.9824 6.39926 13.804L6.34483 13.9964C6.99285 14.1797 7.68475 14.2815 8.3999 14.2815V14.0815ZM6.09148 13.8416L6.09031 13.8423L6.18504 14.0184L6.18621 14.0178L6.09148 13.8416ZM6.09201 13.8414L5.55017 14.1195L5.6415 14.2974L6.18334 14.0193L6.09201 13.8414ZM4.26077 13.332V12.9873H4.06077V13.332H4.26077ZM4.09894 12.6651C2.60018 11.5278 1.65208 9.8192 1.65208 7.91226H1.45208C1.45208 9.88844 2.43502 11.6535 3.97804 12.8245L4.09894 12.6651ZM1.65208 7.91226C1.65208 4.52177 4.64975 1.743 8.3999 1.743V1.543C4.55579 1.543 1.45208 4.39551 1.45208 7.91226H1.65208ZM6.882 6.71768L3.66054 10.0836L3.80503 10.2219L7.02649 6.85596L6.882 6.71768ZM3.78116 10.2402L6.62967 8.66555L6.53291 8.49052L3.6844 10.0652L3.78116 10.2402ZM7.71835 8.83414L8.34065 9.49079L8.48582 9.35322L7.86352 8.69657L7.71835 8.83414ZM9.94237 9.48562L13.0891 6.1219L12.943 5.98527L9.79632 9.34899L9.94237 9.48562ZM12.9677 5.96607L10.1875 7.50337L10.2843 7.67839L13.0645 6.1411L12.9677 5.96607ZM9.1201 7.35664L8.44897 6.69495L8.30855 6.83737L8.97968 7.49906L9.1201 7.35664ZM8.34065 9.49079C8.77643 9.95064 9.50957 9.94827 9.94237 9.48562L9.79632 9.34899C9.44221 9.72752 8.84237 9.72946 8.48582 9.35322L8.34065 9.49079ZM6.62967 8.66555C6.98859 8.46714 7.43626 8.53646 7.71835 8.83414L7.86352 8.69657C7.51874 8.33274 6.97159 8.24801 6.53291 8.49052L6.62967 8.66555ZM7.02649 6.85596C7.37378 6.4931 7.95088 6.48473 8.30855 6.83737L8.44897 6.69495C8.01181 6.26394 7.30647 6.27418 6.882 6.71768L7.02649 6.85596ZM4.26077 12.9873C4.26077 12.8599 4.20035 12.7401 4.09794 12.6644L3.97903 12.8252C4.03044 12.8632 4.06077 12.9234 4.06077 12.9873H4.26077ZM3.4086 15.4592C3.4086 15.7803 3.74963 15.9865 4.03398 15.8374L3.94109 15.6603C3.78991 15.7396 3.6086 15.6299 3.6086 15.4592H3.4086ZM5.55017 14.1195C4.96111 14.4219 4.26077 13.9941 4.26077 13.332H4.06077C4.06077 14.1437 4.91935 14.6681 5.6415 14.2974L5.55017 14.1195ZM6.04637 14.8067C6.24317 14.7059 6.47179 14.6824 6.6919 14.731L6.73502 14.5357C6.47378 14.4781 6.19714 14.5048 5.9552 14.6287L6.04637 14.8067ZM10.1875 7.50337C9.83847 7.69634 9.40408 7.63663 9.1201 7.35664L8.97968 7.49906C9.32678 7.84127 9.85769 7.91425 10.2843 7.67839L10.1875 7.50337ZM6.39598 13.8031C6.29321 13.7778 6.1847 13.7915 6.09148 13.8416L6.18621 14.0178C6.23578 13.9911 6.29347 13.9838 6.34812 13.9973L6.39598 13.8031ZM3.07439 12.8885C3.28157 13.0765 3.4086 13.3355 3.4086 13.6084H3.6086C3.6086 13.2724 3.45252 12.9616 3.20881 12.7404L3.07439 12.8885Z" fill="white" mask="url(#path-1-outside-1_28730_12104)"/>
</svg>
