<svg width="15" height="15" viewBox="0 0 15 15" fill="none" xmlns="http://www.w3.org/2000/svg">
<path d="M13.5797 11.1285L13.5798 11.1285C13.8587 11.4069 13.8924 11.9351 13.5668 12.3175L12.2512 13.6304L12.6044 13.9843L12.2512 13.6304C12.0209 13.8602 11.6695 13.9991 11.1646 14C10.6556 14.0009 10.0253 13.8596 9.30646 13.5652C7.87047 12.9771 6.17605 11.8172 4.56677 10.2113C2.9591 8.60703 1.81418 6.91708 1.23323 5.4843C0.942415 4.76709 0.801945 4.13654 0.800068 3.62611C0.79821 3.12097 0.930468 2.76949 1.14552 2.54102L2.46907 1.22025C2.74862 0.941289 3.27973 0.907717 3.66358 1.23317L5.60849 3.17399C6.05686 3.62142 5.8524 4.34336 5.32545 4.50516L5.32541 4.50503L5.31441 4.50869C4.47495 4.78788 3.85682 5.72831 4.15174 6.65473C4.36235 7.51 4.98978 8.40068 5.7069 9.10723C6.43016 9.81983 7.3279 10.4271 8.14811 10.6317L8.14807 10.6319L8.16087 10.6347C9.01557 10.8243 9.98309 10.3617 10.2817 9.46768L10.2818 9.46772L10.2853 9.4566C10.4469 8.93236 11.1718 8.72561 11.6219 9.17476L13.5797 11.1285Z" stroke="white"/>
</svg>
