<svg width="12" height="14" viewBox="0 0 12 14" fill="none" xmlns="http://www.w3.org/2000/svg">
<path d="M0.727482 2.55536C0.854387 2.37918 1.05823 2.275 1.27513 2.275C2.18369 2.275 2.97544 1.74106 3.74112 1.22493C4.48475 0.723634 5.18699 0.25 6.00013 0.25C6.81326 0.25 7.5155 0.723634 8.25914 1.22493C9.02481 1.74106 9.81657 2.275 10.7251 2.275C10.942 2.275 11.1459 2.37918 11.2728 2.55536C11.3997 2.73131 11.4341 2.95767 11.3655 3.16355C11.0833 4.00999 10.7987 4.63573 10.5534 5.09067C10.6763 5.27606 10.7251 5.46709 10.7251 5.65003C10.7251 5.90001 10.6495 6.12996 10.51 6.33966C10.6484 6.88124 10.7251 7.44418 10.7251 8.01253C10.7251 11.1762 8.60539 13.75 6.00013 13.75C3.39486 13.75 1.27513 11.1762 1.27513 8.0125C1.27513 7.44392 1.35117 6.88053 1.48955 6.33895C1.35049 6.12946 1.27513 5.89975 1.27513 5.65C1.27513 5.46662 1.32417 5.27493 1.44794 5.08906C1.2018 4.63299 0.917616 4.01199 0.634802 3.16352C0.566141 2.95765 0.600576 2.73131 0.727482 2.55536ZM6.00013 13.075C8.23685 13.075 10.0501 10.8083 10.0501 8.0125C10.0501 7.98864 10.0468 7.96594 10.0463 7.94207C10.0202 8.64431 9.80465 9.7 8.02513 9.7C6.88482 9.7 6.38374 8.99125 6.08426 8.56779C6.0584 8.53135 6.02892 8.48948 6.00013 8.45035C5.97133 8.48951 5.94185 8.53135 5.91599 8.56779C5.61651 8.99125 5.11543 9.7 3.97513 9.7C2.20528 9.7 1.9823 8.65533 1.95419 7.95309C1.95395 7.97334 1.95013 7.99225 1.95013 8.0125C1.95013 10.8083 3.7634 13.075 6.00013 13.075ZM9.37265 7.16269C8.55927 7.49185 7.41064 7.675 6.00013 7.675C4.58961 7.675 3.44098 7.49185 2.62761 7.16269C2.62492 7.35034 2.62513 7.52988 2.62513 7.675C2.62513 8.35 2.62513 9.025 3.97513 9.025C5.32513 9.025 5.32513 7.675 6.00013 7.675C6.67513 7.675 6.67513 9.025 8.02513 9.025C9.37513 9.025 9.37513 8.35 9.37513 7.675C9.37513 7.52964 9.37536 7.35031 9.37265 7.16269ZM6.00013 7C8.70013 7 10.0501 6.325 10.0501 5.65C10.0501 4.975 8.02513 4.6375 6.00013 4.6375C3.97513 4.6375 1.95013 4.975 1.95013 5.65C1.95013 6.325 3.30013 7 6.00013 7ZM1.96814 4.62669C2.62289 4.24466 3.83675 3.9625 6.00013 3.9625C8.16374 3.9625 9.3776 4.24466 10.0324 4.62669C10.2429 4.21876 10.4821 3.679 10.7251 2.95C8.70013 2.95 7.35013 0.925 6.00013 0.925C4.65013 0.925 3.30013 2.95 1.27513 2.95C1.51813 3.679 1.75731 4.21855 1.96814 4.62669Z" fill="white"/>
</svg>
