<svg width="19" height="18" viewBox="0 0 19 18" fill="none" xmlns="http://www.w3.org/2000/svg">
<path d="M4.16833 12.2528C4.3636 12.0575 4.3636 11.7409 4.16833 11.5457C3.97307 11.3504 3.65649 11.3504 3.46123 11.5457L4.16833 12.2528ZM2.17224 12.8346C1.97698 13.0299 1.97698 13.3465 2.17224 13.5418C2.36751 13.737 2.68409 13.737 2.87935 13.5418L2.17224 12.8346ZM5.43633 13.5208C5.63159 13.3255 5.63159 13.0089 5.43633 12.8137C5.24107 12.6184 4.92449 12.6184 4.72923 12.8137L5.43633 13.5208ZM1.73459 15.8083C1.53933 16.0036 1.53933 16.3201 1.73459 16.5154C1.92985 16.7107 2.24643 16.7107 2.4417 16.5154L1.73459 15.8083ZM6.70433 14.7888C6.89959 14.5935 6.89959 14.2769 6.70433 14.0817C6.50907 13.8864 6.19249 13.8864 5.99723 14.0817L6.70433 14.7888ZM4.64829 15.4306C4.45303 15.6259 4.45303 15.9424 4.64829 16.1377C4.84355 16.333 5.16013 16.333 5.3554 16.1377L4.64829 15.4306ZM12.0313 4.57599V4.07599V4.57599ZM17.3791 0.870919L17.8638 0.748131C17.8185 0.569411 17.6785 0.430108 17.4996 0.385664L17.3791 0.870919ZM4.76203 10.7211L4.32104 10.4855C4.21726 10.6797 4.25277 10.919 4.40848 11.0747L4.76203 10.7211ZM7.53484 13.494L7.18129 13.8475C7.33707 14.0033 7.57646 14.0388 7.77071 13.9348L7.53484 13.494ZM6.25251 6.21441C6.52662 6.18094 6.72169 5.93159 6.68822 5.65749C6.65474 5.38338 6.4054 5.18831 6.13129 5.22179L6.25251 6.21441ZM1 9.28828L0.585028 9.00936C0.460049 9.1953 0.474012 9.44167 0.619197 9.6123C0.764383 9.78293 1.00535 9.83615 1.20889 9.74255L1 9.28828ZM3.88802 9.63592C4.15949 9.68652 4.42058 9.50748 4.47118 9.23601C4.52179 8.96455 4.34274 8.70346 4.07128 8.65285L3.88802 9.63592ZM13.0343 12.1176C13.0672 11.8434 12.8716 11.5945 12.5974 11.5616C12.3232 11.5288 12.0743 11.7244 12.0414 11.9986L13.0343 12.1176ZM8.97071 17.25L8.51574 17.0426C8.42295 17.2462 8.47669 17.4866 8.64733 17.6313C8.81796 17.776 9.06395 17.7898 9.24963 17.665L8.97071 17.25ZM9.60624 14.1793C9.55598 13.9078 9.29511 13.7284 9.02358 13.7787C8.75205 13.829 8.57268 14.0898 8.62295 14.3614L9.60624 14.1793ZM3.46123 11.5457L2.17224 12.8346L2.87935 13.5418L4.16833 12.2528L3.46123 11.5457ZM4.72923 12.8137L1.73459 15.8083L2.4417 16.5154L5.43633 13.5208L4.72923 12.8137ZM5.99723 14.0817L4.64829 15.4306L5.3554 16.1377L6.70433 14.7888L5.99723 14.0817ZM12.0313 5.07599C12.2573 5.07599 12.4782 5.14301 12.6661 5.26857L13.2217 4.4371C12.8694 4.20166 12.4551 4.07599 12.0313 4.07599V5.07599ZM12.6661 5.26857C12.8541 5.39413 13.0005 5.5726 13.087 5.7814L14.0109 5.39872C13.8487 5.00719 13.5741 4.67255 13.2217 4.4371L12.6661 5.26857ZM13.087 5.7814C13.1735 5.99021 13.1961 6.21996 13.152 6.44163L14.1328 6.63672C14.2155 6.22107 14.1731 5.79025 14.0109 5.39872L13.087 5.7814ZM13.152 6.44163C13.108 6.66329 12.9991 6.8669 12.8393 7.02671L13.5464 7.73382C13.8461 7.43415 14.0502 7.05236 14.1328 6.63672L13.152 6.44163ZM12.8393 7.02671C12.6795 7.18652 12.4759 7.29535 12.2542 7.33944L12.4493 8.32023C12.865 8.23755 13.2468 8.03348 13.5464 7.73382L12.8393 7.02671ZM12.2542 7.33944C12.0326 7.38354 11.8028 7.36091 11.594 7.27442L11.2113 8.1983C11.6029 8.36048 12.0337 8.4029 12.4493 8.32023L12.2542 7.33944ZM11.594 7.27442C11.3852 7.18793 11.2067 7.04147 11.0812 6.85355L10.2497 7.40912C10.4851 7.76149 10.8198 8.03612 11.2113 8.1983L11.594 7.27442ZM11.0812 6.85355C10.9556 6.66563 10.8886 6.4447 10.8886 6.2187H9.88859C9.88859 6.64248 10.0143 7.05675 10.2497 7.40912L11.0812 6.85355ZM10.8886 6.2187C10.8886 5.91564 11.009 5.62499 11.2233 5.41069L10.5162 4.70358C10.1143 5.10541 9.88859 5.65042 9.88859 6.2187H10.8886ZM11.2233 5.41069C11.4376 5.19638 11.7282 5.07599 12.0313 5.07599V4.07599C11.463 4.07599 10.918 4.30175 10.5162 4.70358L11.2233 5.41069ZM12.8138 1.86597L16.384 5.43615L17.0911 4.72904L13.521 1.15886L12.8138 1.86597ZM17.4996 0.385664C16.9469 0.248376 15.1392 -0.0450779 12.7096 1.13174C10.2852 2.3061 7.29565 4.91834 4.32104 10.4855L5.20303 10.9568C8.10977 5.51663 10.9642 3.08834 13.1456 2.03172C15.3219 0.977552 16.882 1.26264 17.2585 1.35617L17.4996 0.385664ZM4.40848 11.0747L7.18129 13.8475L7.8884 13.1404L5.11559 10.3676L4.40848 11.0747ZM7.77071 13.9348C13.3559 10.9467 15.9662 7.94787 17.1342 5.52086C18.3046 3.08876 18 1.28585 17.8638 0.748131L16.8944 0.993707C16.986 1.35528 17.2809 2.90972 16.2331 5.08723C15.1828 7.26983 12.7571 10.1329 7.29897 13.0531L7.77071 13.9348ZM6.13129 5.22179C4.70112 5.39644 2.51155 6.14315 0.585028 9.00936L1.41497 9.56721C3.16355 6.96573 5.08074 6.35751 6.25251 6.21441L6.13129 5.22179ZM1 9.28828C1.20889 9.74255 1.20869 9.74265 1.20849 9.74274C1.20843 9.74277 1.20824 9.74286 1.20811 9.74291C1.20787 9.74302 1.20764 9.74313 1.20743 9.74323C1.207 9.74342 1.20664 9.74358 1.20634 9.74372C1.20575 9.74399 1.20541 9.74414 1.20532 9.74417C1.20515 9.74425 1.206 9.74387 1.20786 9.74308C1.21157 9.74151 1.21932 9.73829 1.23103 9.73375C1.25446 9.72466 1.29375 9.71027 1.34839 9.69313C1.45765 9.65886 1.62827 9.61357 1.85626 9.57757C2.31141 9.50568 2.99883 9.47016 3.88802 9.63592L4.07128 8.65285C3.06297 8.46489 2.26056 8.50132 1.70026 8.58981C1.42053 8.63399 1.20202 8.691 1.04908 8.73898C0.972615 8.76296 0.912537 8.78469 0.869377 8.80144C0.847796 8.80981 0.83044 8.81693 0.817374 8.82248C0.810841 8.82525 0.805381 8.82762 0.801 8.82956C0.79881 8.83053 0.796889 8.83138 0.79524 8.83213C0.794415 8.8325 0.793658 8.83284 0.792969 8.83316C0.792624 8.83331 0.792297 8.83346 0.791986 8.83361C0.791831 8.83368 0.791611 8.83378 0.791533 8.83381C0.791317 8.83391 0.791105 8.83401 1 9.28828ZM12.0414 11.9986C11.9012 13.1693 11.2934 15.0863 8.69179 16.835L9.24963 17.665C12.1157 15.7386 12.8629 13.5488 13.0343 12.1176L12.0414 11.9986ZM8.97071 17.25C9.42568 17.4574 9.42577 17.4572 9.42587 17.4569C9.42591 17.4569 9.42601 17.4567 9.42608 17.4565C9.42622 17.4562 9.42636 17.4559 9.42652 17.4555C9.42683 17.4548 9.42717 17.4541 9.42753 17.4533C9.42827 17.4516 9.42911 17.4497 9.43007 17.4475C9.43199 17.4432 9.43434 17.4377 9.43708 17.4312C9.44257 17.4181 9.44963 17.4008 9.45793 17.3792C9.47453 17.3361 9.4961 17.276 9.51991 17.1995C9.56754 17.0465 9.62418 16.8279 9.66812 16.5482C9.75612 15.988 9.79259 15.1859 9.60624 14.1793L8.62295 14.3614C8.78733 15.2493 8.75186 15.937 8.68023 16.393C8.64436 16.6214 8.59927 16.7925 8.56512 16.9022C8.54804 16.9571 8.5337 16.9965 8.52462 17.0201C8.52009 17.0319 8.51687 17.0397 8.51528 17.0435C8.51449 17.0454 8.5141 17.0463 8.51417 17.0461C8.5142 17.0461 8.51434 17.0457 8.5146 17.0451C8.51473 17.0449 8.51489 17.0445 8.51508 17.0441C8.51518 17.0439 8.51528 17.0436 8.51539 17.0434C8.51545 17.0433 8.51553 17.0431 8.51556 17.043C8.51565 17.0428 8.51574 17.0426 8.97071 17.25Z" fill="white"/>
</svg>
