<svg width="16" height="16" viewBox="0 0 16 16" fill="none" xmlns="http://www.w3.org/2000/svg">
<path fill-rule="evenodd" clip-rule="evenodd" d="M15.5 3.06731C15.5 1.64942 14.3506 0.5 12.9327 0.5L10.1923 0.5C9.9852 0.5 9.81731 0.667893 9.81731 0.875C9.81731 1.08211 9.9852 1.25 10.1923 1.25L12.9327 1.25C13.9364 1.25 14.75 2.06364 14.75 3.06731L14.75 12.9327C14.75 13.9364 13.9364 14.75 12.9327 14.75H10.1923C9.9852 14.75 9.81731 14.9179 9.81731 15.125C9.81731 15.3321 9.9852 15.5 10.1923 15.5H12.9327C14.3506 15.5 15.5 14.3506 15.5 12.9327L15.5 3.06731ZM3.96709 4.44637C3.82064 4.29993 3.5832 4.29993 3.43676 4.44637L0.148296 7.73484C0.00185013 7.88128 0.00185013 8.11872 0.148296 8.26517L3.43676 11.5536C3.5832 11.7001 3.82064 11.7001 3.96709 11.5536C4.11353 11.4072 4.11353 11.1697 3.96709 11.0233L1.31879 8.375L11.375 8.375C11.5821 8.375 11.75 8.20711 11.75 8C11.75 7.79289 11.5821 7.625 11.375 7.625L1.31879 7.625L3.96709 4.9767C4.11353 4.83026 4.11353 4.59282 3.96709 4.44637Z" fill="#FF4E64"/>
</svg>
