<svg width="24" height="24" viewBox="0 0 24 24" fill="none" xmlns="http://www.w3.org/2000/svg">
<path fill-rule="evenodd" clip-rule="evenodd" d="M4.875 8.976C4.875 8.06306 4.92441 7.35503 5.0471 6.80296C5.16885 6.25513 5.35772 5.88412 5.62092 5.62092C5.88412 5.35772 6.25513 5.16885 6.80296 5.0471C7.35503 4.92441 8.06306 4.875 8.976 4.875H15.024C15.9369 4.875 16.645 4.92441 17.197 5.0471C17.7449 5.16885 18.1159 5.35772 18.3791 5.62092C18.6423 5.88412 18.8311 6.25513 18.9529 6.80296C19.0756 7.35503 19.125 8.06306 19.125 8.976V9.3C19.125 9.75563 18.7556 10.125 18.3 10.125H5.7C5.24436 10.125 4.875 9.75564 4.875 9.3V8.976ZM8.976 4.125C8.04594 4.125 7.27298 4.17435 6.64024 4.31496C6.00325 4.45653 5.48564 4.69554 5.09059 5.09059C4.69554 5.48564 4.45653 6.00325 4.31496 6.64024C4.17435 7.27298 4.125 8.04594 4.125 8.976V9.3C4.125 10.1698 4.83015 10.875 5.7 10.875H18.3C19.1698 10.875 19.875 10.1698 19.875 9.3V8.976C19.875 8.04594 19.8257 7.27298 19.685 6.64024C19.5435 6.00325 19.3045 5.48564 18.9094 5.09059C18.5144 4.69554 17.9967 4.45653 17.3598 4.31496C16.727 4.17435 15.9541 4.125 15.024 4.125H8.976ZM4.875 14.7C4.875 14.2444 5.24437 13.875 5.7 13.875H9.45C9.82279 13.875 10.125 14.1772 10.125 14.55V18.45C10.125 18.8228 9.82279 19.125 9.45 19.125H8.976C8.06306 19.125 7.35503 19.0756 6.80296 18.9529C6.25513 18.8311 5.88412 18.6423 5.62092 18.3791C5.35772 18.1159 5.16885 17.7449 5.0471 17.197C4.92441 16.645 4.875 15.9369 4.875 15.024V14.7ZM5.7 13.125C4.83015 13.125 4.125 13.8302 4.125 14.7V15.024C4.125 15.9541 4.17435 16.727 4.31496 17.3598C4.45653 17.9967 4.69554 18.5144 5.09059 18.9094C5.48564 19.3045 6.00325 19.5435 6.64024 19.685C7.27298 19.8257 8.04594 19.875 8.976 19.875H9.45C10.237 19.875 10.875 19.237 10.875 18.45V14.55C10.875 13.763 10.237 13.125 9.45 13.125H5.7ZM14.55 13.125C13.763 13.125 13.125 13.763 13.125 14.55V18.45C13.125 19.237 13.763 19.875 14.55 19.875H15.024C15.9541 19.875 16.727 19.8257 17.3598 19.685C17.9967 19.5435 18.5144 19.3045 18.9094 18.9094C19.3045 18.5144 19.5435 17.9967 19.685 17.3598C19.8257 16.727 19.875 15.9541 19.875 15.024V14.7C19.875 13.8302 19.1698 13.125 18.3 13.125H14.55ZM13.875 14.55C13.875 14.1772 14.1772 13.875 14.55 13.875H18.3C18.7556 13.875 19.125 14.2444 19.125 14.7V15.024C19.125 15.9369 19.0756 16.645 18.9529 17.197C18.8311 17.7449 18.6423 18.1159 18.3791 18.3791C18.1159 18.6423 17.7449 18.8311 17.197 18.9529C16.645 19.0756 15.9369 19.125 15.024 19.125H14.55C14.1772 19.125 13.875 18.8228 13.875 18.45V14.55Z" fill="black"/>
</svg>
