<svg width="16" height="16" viewBox="0 0 16 16" fill="none" xmlns="http://www.w3.org/2000/svg">
<path d="M14.0043 13.7439L14.2681 14.1687H14.2681L14.0043 13.7439ZM1.99456 13.7439L2.2584 13.3192H2.2584L1.99456 13.7439ZM1.42782 12.5422L1.92599 12.585L1.42782 12.5422ZM14.571 12.5422L14.0728 12.585V12.585L14.571 12.5422ZM14.0495 10.7023L13.5934 10.9071V10.9071L14.0495 10.7023ZM1.94927 10.7023L1.49315 10.4975H1.49315L1.94927 10.7023ZM10.7879 4.16346C10.7879 5.70349 9.53943 6.95192 7.99941 6.95192V7.95192C10.0917 7.95192 11.7879 6.25577 11.7879 4.16346H10.7879ZM7.99941 6.95192C6.45938 6.95192 5.21095 5.70349 5.21095 4.16346H4.21095C4.21095 6.25577 5.9071 7.95192 7.99941 7.95192V6.95192ZM5.21095 4.16346C5.21095 2.62344 6.45938 1.375 7.99941 1.375V0.375C5.9071 0.375 4.21095 2.07115 4.21095 4.16346H5.21095ZM7.99941 1.375C9.53943 1.375 10.7879 2.62344 10.7879 4.16346H11.7879C11.7879 2.07115 10.0917 0.375 7.99941 0.375V1.375ZM13.7404 13.3192C12.9509 13.8097 11.1659 14.625 7.99941 14.625V15.625C11.3479 15.625 13.3164 14.7599 14.2681 14.1687L13.7404 13.3192ZM7.99941 14.625C4.83293 14.625 3.04791 13.8097 2.2584 13.3192L1.73072 14.1687C2.68242 14.7599 4.65093 15.625 7.99941 15.625V14.625ZM0.929654 12.4994C0.874419 13.143 1.14195 13.8029 1.73072 14.1687L2.2584 13.3192C2.03242 13.1788 1.89837 12.9068 1.92599 12.585L0.929654 12.4994ZM14.0728 12.585C14.1005 12.9068 13.9664 13.1788 13.7404 13.3192L14.2681 14.1687C14.8569 13.8029 15.1244 13.143 15.0692 12.4994L14.0728 12.585ZM13.5934 10.9071C13.8168 11.4045 14.023 12.0047 14.0728 12.585L15.0692 12.4995C15.0058 11.7612 14.7514 11.0446 14.5057 10.4975L13.5934 10.9071ZM1.92599 12.585C1.9758 12.0047 2.18204 11.4045 2.40539 10.9071L1.49315 10.4975C1.24745 11.0446 0.993014 11.7612 0.929654 12.4994L1.92599 12.585ZM12.2771 9.14423H3.72168V10.1442H12.2771V9.14423ZM2.40539 10.9071C2.6164 10.4372 3.12388 10.1442 3.72168 10.1442V9.14423C2.81613 9.14423 1.898 9.59593 1.49315 10.4975L2.40539 10.9071ZM14.5057 10.4975C14.1008 9.59593 13.1827 9.14423 12.2771 9.14423V10.1442C12.8749 10.1442 13.3824 10.4372 13.5934 10.9071L14.5057 10.4975Z" fill="white"/>
</svg>
